<svg width="28" height="28" viewBox="0 0 28 28" fill="none" xmlns="http://www.w3.org/2000/svg">
<g id="bell">
<path id="Vector" d="M14 28C15.9316 28 17.4984 26.4332 17.4984 24.5H10.5017C10.5017 26.4332 12.0685 28 14 28ZM25.7792 19.8127C24.7226 18.6774 22.7457 16.9695 22.7457 11.375C22.7457 7.12578 19.7663 3.72422 15.7489 2.88969V1.75C15.7489 0.783672 14.9658 0 14 0C13.0343 0 12.2511 0.783672 12.2511 1.75V2.88969C8.23379 3.72422 5.25441 7.12578 5.25441 11.375C5.25441 16.9695 3.27746 18.6774 2.2209 19.8127C1.89277 20.1655 1.7473 20.5871 1.75004 21C1.75605 21.8969 2.45988 22.75 3.50551 22.75H24.4946C25.5402 22.75 26.2446 21.8969 26.25 21C26.2528 20.5871 26.1073 20.1649 25.7792 19.8127Z" fill="white"/>
</g>
</svg>
