<svg width="14" height="16" viewBox="0 0 14 16" fill="none" xmlns="http://www.w3.org/2000/svg">
<path id="Vector" d="M13.8404 7.99865C13.8404 12.3576 10.7678 15.8894 6.97539 15.8894C3.18301 15.8894 0.110352 12.3576 0.110352 7.99865C0.110352 3.63965 3.18301 0.10791 6.97539 0.10791C10.7678 0.10791 13.8404 3.63965 13.8404 7.99865ZM7.44597 11.6227L11.1968 7.31139C11.457 7.0123 11.457 6.52868 11.1968 6.23278L10.7262 5.69188C10.466 5.39279 10.0453 5.39279 9.78783 5.69188L6.97539 8.92453L4.16294 5.69188C3.90273 5.39279 3.48197 5.39279 3.22453 5.69188L2.75394 6.23278C2.49374 6.53186 2.49374 7.01549 2.75394 7.31139L6.5048 11.6227C6.76501 11.9217 7.18577 11.9217 7.44597 11.6227Z" fill="white"/>
</svg>
