<svg width="31" height="31" viewBox="0 0 31 31" fill="none" xmlns="http://www.w3.org/2000/svg">
<g id="wrench" clip-path="url(#clip0_1_6442)">
<path id="Vector" d="M29.8591 7.12133C29.7313 6.60627 29.0868 6.43173 28.7115 6.80705L24.47 11.0485L20.5982 10.4034L19.9531 6.53155L24.1945 2.29011C24.5721 1.91251 24.3902 1.26911 23.8717 1.1402C21.1692 0.470559 18.1934 1.1921 16.0813 3.3037C13.8202 5.56473 13.1979 8.84221 14.1391 11.6999L1.9675 23.8715C0.542085 25.2969 0.542085 27.6081 1.9675 29.0335C3.3929 30.4589 5.70413 30.4589 7.12954 29.0335L19.2909 16.8722C22.1497 17.8253 25.4209 17.1962 27.6967 14.9203C29.8112 12.8059 30.5316 9.82556 29.8591 7.12133ZM4.54909 27.8209C3.79332 27.8209 3.18015 27.2077 3.18015 26.4519C3.18015 25.6956 3.79332 25.083 4.54909 25.083C5.30486 25.083 5.91803 25.6956 5.91803 26.4519C5.91803 27.2077 5.30486 27.8209 4.54909 27.8209Z" fill="black"/>
</g>
<defs>
<clipPath id="clip0_1_6442">
<rect width="29.2041" height="29.2041" fill="white" transform="translate(0.898438 0.898438)"/>
</clipPath>
</defs>
</svg>
