<svg width="33" height="27" viewBox="0 0 33 27" fill="none" xmlns="http://www.w3.org/2000/svg">
<path id="Vector" d="M4.95 24.4688V26.1563C4.95 26.6224 5.31919 27 5.775 27H17.325C17.7808 27 18.15 26.6224 18.15 26.1563V8.0817C18.3851 7.97623 18.6099 7.85231 18.8198 7.70624L26.1443 10.218C26.5763 10.3661 27.044 10.1278 27.1889 9.68639L27.7133 8.08645C27.8582 7.64454 27.6251 7.16624 27.1935 7.01806L20.5729 4.74786C20.5946 4.57278 20.625 4.39982 20.625 4.21894C20.625 1.88915 18.778 0.000225356 16.5 0.000225356C14.9691 0.000225356 13.6486 0.862952 12.9365 2.12909L6.85575 0.0439945C6.42366 -0.104188 5.95598 0.13417 5.81109 0.575553L5.2867 2.1755C5.14181 2.61741 5.37488 3.09571 5.80645 3.24389L12.6127 5.57789C12.9881 6.69849 13.7966 7.61026 14.8495 8.08117V23.625H5.775C5.31919 23.625 4.95 24.0026 4.95 24.4688ZM0 16.0313C0 18.3611 2.95505 20.2501 6.6 20.2501C10.245 20.2501 13.2 18.3611 13.2 16.0313H13.199C13.199 15.205 13.3062 15.649 8.81358 6.4596C7.90195 4.59493 5.29598 4.59862 4.38591 6.4596C-0.0680625 15.571 0.00103125 15.1781 0.00103125 16.0313H0ZM2.8875 15.1876L6.6 7.59391L10.3125 15.1876H2.8875ZM19.801 22.7813H19.8C19.8 25.1111 22.755 27 26.4 27C30.045 27 33 25.1111 33 22.7813H32.999C32.999 21.9549 33.1062 22.399 28.6136 13.2095C27.702 11.3449 25.096 11.3486 24.1859 13.2095C19.7319 22.3209 19.801 21.9281 19.801 22.7813ZM22.6875 21.9375L26.4 14.3439L30.1125 21.9375H22.6875Z" fill="white"/>
</svg>
